<svg width="214" height="34" viewBox="0 0 214 34" fill="none" xmlns="http://www.w3.org/2000/svg">
<path d="M9.33 28.27C8.19 28.27 7.05 28.23 5.91 28.15C4.79 28.09 3.62 27.93 2.4 27.67V7.51C3.36 7.33 4.41 7.2 5.55 7.12C6.69 7.02 7.75 6.97 8.73 6.97C10.05 6.97 11.26 7.07 12.36 7.27C13.48 7.45 14.44 7.77 15.24 8.23C16.04 8.69 16.66 9.3 17.1 10.06C17.56 10.8 17.79 11.72 17.79 12.82C17.79 14.48 16.99 15.79 15.39 16.75C16.71 17.25 17.61 17.93 18.09 18.79C18.57 19.65 18.81 20.62 18.81 21.7C18.81 23.88 18.01 25.52 16.41 26.62C14.83 27.72 12.47 28.27 9.33 28.27ZM6.96 18.94V24.31C7.3 24.35 7.67 24.38 8.07 24.4C8.47 24.42 8.91 24.43 9.39 24.43C10.79 24.43 11.92 24.23 12.78 23.83C13.64 23.43 14.07 22.69 14.07 21.61C14.07 20.65 13.71 19.97 12.99 19.57C12.27 19.15 11.24 18.94 9.9 18.94H6.96ZM6.96 15.37H9.24C10.68 15.37 11.71 15.19 12.33 14.83C12.95 14.45 13.26 13.85 13.26 13.03C13.26 12.19 12.94 11.6 12.3 11.26C11.66 10.92 10.72 10.75 9.48 10.75C9.08 10.75 8.65 10.76 8.19 10.78C7.73 10.78 7.32 10.8 6.96 10.84V15.37ZM29.4863 17.59C29.4863 18.61 29.6063 19.53 29.8463 20.35C30.1063 21.17 30.4663 21.88 30.9263 22.48C31.4063 23.06 31.9863 23.51 32.6663 23.83C33.3463 24.15 34.1263 24.31 35.0063 24.31C35.8663 24.31 36.6363 24.15 37.3163 23.83C38.0163 23.51 38.5963 23.06 39.0563 22.48C39.5363 21.88 39.8963 21.17 40.1363 20.35C40.3963 19.53 40.5263 18.61 40.5263 17.59C40.5263 16.57 40.3963 15.65 40.1363 14.83C39.8963 13.99 39.5363 13.28 39.0563 12.7C38.5963 12.1 38.0163 11.64 37.3163 11.32C36.6363 11 35.8663 10.84 35.0063 10.84C34.1263 10.84 33.3463 11.01 32.6663 11.35C31.9863 11.67 31.4063 12.13 30.9263 12.73C30.4663 13.31 30.1063 14.02 29.8463 14.86C29.6063 15.68 29.4863 16.59 29.4863 17.59ZM45.3563 17.59C45.3563 19.37 45.0863 20.94 44.5463 22.3C44.0263 23.64 43.3063 24.77 42.3863 25.69C41.4663 26.59 40.3663 27.27 39.0863 27.73C37.8263 28.19 36.4663 28.42 35.0063 28.42C33.5863 28.42 32.2463 28.19 30.9863 27.73C29.7263 27.27 28.6263 26.59 27.6863 25.69C26.7463 24.77 26.0063 23.64 25.4663 22.3C24.9263 20.94 24.6563 19.37 24.6563 17.59C24.6563 15.81 24.9363 14.25 25.4963 12.91C26.0563 11.55 26.8063 10.41 27.7463 9.49C28.7063 8.57 29.8063 7.88 31.0463 7.42C32.3063 6.96 33.6263 6.73 35.0063 6.73C36.4263 6.73 37.7663 6.96 39.0263 7.42C40.2863 7.88 41.3863 8.57 42.3263 9.49C43.2663 10.41 44.0063 11.55 44.5463 12.91C45.0863 14.25 45.3563 15.81 45.3563 17.59ZM56.1874 17.59C56.1874 18.61 56.3074 19.53 56.5474 20.35C56.8074 21.17 57.1674 21.88 57.6274 22.48C58.1074 23.06 58.6874 23.51 59.3674 23.83C60.0474 24.15 60.8274 24.31 61.7074 24.31C62.5674 24.31 63.3374 24.15 64.0174 23.83C64.7174 23.51 65.2974 23.06 65.7574 22.48C66.2374 21.88 66.5974 21.17 66.8374 20.35C67.0974 19.53 67.2274 18.61 67.2274 17.59C67.2274 16.57 67.0974 15.65 66.8374 14.83C66.5974 13.99 66.2374 13.28 65.7574 12.7C65.2974 12.1 64.7174 11.64 64.0174 11.32C63.3374 11 62.5674 10.84 61.7074 10.84C60.8274 10.84 60.0474 11.01 59.3674 11.35C58.6874 11.67 58.1074 12.13 57.6274 12.73C57.1674 13.31 56.8074 14.02 56.5474 14.86C56.3074 15.68 56.1874 16.59 56.1874 17.59ZM72.0574 17.59C72.0574 19.37 71.7874 20.94 71.2474 22.3C70.7274 23.64 70.0074 24.77 69.0874 25.69C68.1674 26.59 67.0674 27.27 65.7874 27.73C64.5274 28.19 63.1674 28.42 61.7074 28.42C60.2874 28.42 58.9474 28.19 57.6874 27.73C56.4274 27.27 55.3274 26.59 54.3874 25.69C53.4474 24.77 52.7074 23.64 52.1674 22.3C51.6274 20.94 51.3574 19.37 51.3574 17.59C51.3574 15.81 51.6374 14.25 52.1974 12.91C52.7574 11.55 53.5074 10.41 54.4474 9.49C55.4074 8.57 56.5074 7.88 57.7474 7.42C59.0074 6.96 60.3274 6.73 61.7074 6.73C63.1274 6.73 64.4674 6.96 65.7274 7.42C66.9874 7.88 68.0874 8.57 69.0274 9.49C69.9674 10.41 70.7074 11.55 71.2474 12.91C71.7874 14.25 72.0574 15.81 72.0574 17.59ZM84.6286 24.43C85.2886 24.43 85.8286 24.38 86.2486 24.28C86.6886 24.16 87.0386 24.01 87.2986 23.83C87.5586 23.63 87.7386 23.4 87.8386 23.14C87.9386 22.88 87.9886 22.59 87.9886 22.27C87.9886 21.59 87.6686 21.03 87.0286 20.59C86.3886 20.13 85.2886 19.64 83.7286 19.12C83.0486 18.88 82.3686 18.61 81.6886 18.31C81.0086 17.99 80.3986 17.6 79.8586 17.14C79.3186 16.66 78.8786 16.09 78.5386 15.43C78.1986 14.75 78.0286 13.93 78.0286 12.97C78.0286 12.01 78.2086 11.15 78.5686 10.39C78.9286 9.61 79.4386 8.95 80.0986 8.41C80.7586 7.87 81.5586 7.46 82.4986 7.18C83.4386 6.88 84.4986 6.73 85.6786 6.73C87.0786 6.73 88.2886 6.88 89.3086 7.18C90.3286 7.48 91.1686 7.81 91.8286 8.17L90.4786 11.86C89.8986 11.56 89.2486 11.3 88.5286 11.08C87.8286 10.84 86.9786 10.72 85.9786 10.72C84.8586 10.72 84.0486 10.88 83.5486 11.2C83.0686 11.5 82.8286 11.97 82.8286 12.61C82.8286 12.99 82.9186 13.31 83.0986 13.57C83.2786 13.83 83.5286 14.07 83.8486 14.29C84.1886 14.49 84.5686 14.68 84.9886 14.86C85.4286 15.02 85.9086 15.19 86.4286 15.37C87.5086 15.77 88.4486 16.17 89.2486 16.57C90.0486 16.95 90.7086 17.4 91.2286 17.92C91.7686 18.44 92.1686 19.05 92.4286 19.75C92.6886 20.45 92.8186 21.3 92.8186 22.3C92.8186 24.24 92.1386 25.75 90.7786 26.83C89.4186 27.89 87.3686 28.42 84.6286 28.42C83.7086 28.42 82.8786 28.36 82.1386 28.24C81.3986 28.14 80.7386 28.01 80.1586 27.85C79.5986 27.69 79.1086 27.52 78.6886 27.34C78.2886 27.16 77.9486 26.99 77.6686 26.83L78.9886 23.11C79.6086 23.45 80.3686 23.76 81.2686 24.04C82.1886 24.3 83.3086 24.43 84.6286 24.43ZM114.254 7.21V11.2H107.984V28H103.304V11.2H97.0336V7.21H114.254ZM145.888 7.21V11.2H139.618V28H134.938V11.2H128.668V7.21H145.888ZM151.896 7.21H156.576V28H151.896V7.21ZM169.908 7.21C170.268 7.87 170.678 8.69 171.138 9.67C171.618 10.63 172.108 11.68 172.608 12.82C173.128 13.94 173.638 15.09 174.138 16.27C174.638 17.45 175.108 18.56 175.548 19.6C175.988 18.56 176.458 17.45 176.958 16.27C177.458 15.09 177.958 13.94 178.458 12.82C178.978 11.68 179.468 10.63 179.928 9.67C180.408 8.69 180.828 7.87 181.188 7.21H185.448C185.648 8.59 185.828 10.14 185.988 11.86C186.168 13.56 186.318 15.34 186.438 17.2C186.578 19.04 186.698 20.89 186.798 22.75C186.918 24.61 187.018 26.36 187.098 28H182.538C182.478 25.98 182.398 23.78 182.298 21.4C182.198 19.02 182.048 16.62 181.848 14.2C181.488 15.04 181.088 15.97 180.648 16.99C180.208 18.01 179.768 19.03 179.328 20.05C178.908 21.07 178.498 22.05 178.098 22.99C177.698 23.91 177.358 24.7 177.078 25.36H173.808C173.528 24.7 173.188 23.91 172.788 22.99C172.388 22.05 171.968 21.07 171.528 20.05C171.108 19.03 170.678 18.01 170.238 16.99C169.798 15.97 169.398 15.04 169.038 14.2C168.838 16.62 168.688 19.02 168.588 21.4C168.488 23.78 168.408 25.98 168.348 28H163.788C163.868 26.36 163.958 24.61 164.058 22.75C164.178 20.89 164.298 19.04 164.418 17.2C164.558 15.34 164.708 13.56 164.868 11.86C165.048 10.14 165.238 8.59 165.438 7.21H169.908ZM194.312 28V7.21H208.352V11.14H198.992V15.22H207.302V19.06H198.992V24.07H209.042V28H194.312Z" fill="black"/>
</svg>
